<svg width="20" height="15" viewBox="0 0 20 15" fill="none" xmlns="http://www.w3.org/2000/svg">
<path d="M2 14.4471C1.45 14.4471 0.979167 14.2703 0.5875 13.9166C0.195833 13.563 0 13.1378 0 12.6412V1.80589C0 1.30927 0.195833 0.884132 0.5875 0.530479C0.979167 0.176826 1.45 0 2 0H18C18.55 0 19.0208 0.176826 19.4125 0.530479C19.8042 0.884132 20 1.30927 20 1.80589V12.6412C20 13.1378 19.8042 13.563 19.4125 13.9166C19.0208 14.2703 18.55 14.4471 18 14.4471H2ZM10 8.12649L2 3.61177V12.6412H18V3.61177L10 8.12649ZM10 6.3206L18 1.80589H2L10 6.3206ZM2 3.61177V1.80589V12.6412V3.61177Z" fill="white"/>
</svg>
