<svg width="16" height="19" viewBox="0 0 16 19" fill="none" xmlns="http://www.w3.org/2000/svg">
<path d="M8 9.02943C8.55 9.02943 9.02083 8.85261 9.4125 8.49895C9.80417 8.1453 10 7.72016 10 7.22355C10 6.72693 9.80417 6.30179 9.4125 5.94814C9.02083 5.59449 8.55 5.41766 8 5.41766C7.45 5.41766 6.97917 5.59449 6.5875 5.94814C6.19583 6.30179 6 6.72693 6 7.22355C6 7.72016 6.19583 8.1453 6.5875 8.49895C6.97917 8.85261 7.45 9.02943 8 9.02943ZM8 15.6661C10.0333 13.9806 11.5417 12.4493 12.525 11.0723C13.5083 9.69535 14 8.47262 14 7.40413C14 5.76379 13.4208 4.42066 12.2625 3.37475C11.1042 2.32884 9.68333 1.80589 8 1.80589C6.31667 1.80589 4.89583 2.32884 3.7375 3.37475C2.57917 4.42066 2 5.76379 2 7.40413C2 8.47262 2.49167 9.69535 3.475 11.0723C4.45833 12.4493 5.96667 13.9806 8 15.6661ZM8 18.0589C5.31667 15.9971 3.3125 14.0822 1.9875 12.3139C0.6625 10.5456 0 8.90904 0 7.40413C0 5.14678 0.804167 3.34841 2.4125 2.00905C4.02083 0.669683 5.88333 0 8 0C10.1167 0 11.9792 0.669683 13.5875 2.00905C15.1958 3.34841 16 5.14678 16 7.40413C16 8.90904 15.3375 10.5456 14.0125 12.3139C12.6875 14.0822 10.6833 15.9971 8 18.0589Z" fill="white"/>
</svg>
