<svg width="118" height="50" viewBox="0 0 118 50" fill="none" xmlns="http://www.w3.org/2000/svg">
<path d="M15.704 4.91999C17.784 4.91999 19.624 5.22399 21.224 5.83199C22.856 6.43999 24.392 7.35199 25.832 8.56799L22.088 13.032C21.096 12.264 20.12 11.688 19.16 11.304C18.2 10.92 17.176 10.728 16.088 10.728C13.848 10.728 12.072 11.672 10.76 13.56C9.47999 15.448 8.83998 18.36 8.83998 22.296C8.83998 26.168 9.47999 29.048 10.76 30.936C12.072 32.792 13.88 33.72 16.184 33.72C17.4 33.72 18.504 33.496 19.496 33.048C20.488 32.568 21.56 31.896 22.712 31.032L26.216 35.544C24.968 36.792 23.448 37.816 21.656 38.616C19.896 39.416 17.944 39.816 15.8 39.816C12.728 39.816 10.056 39.144 7.78399 37.8C5.51198 36.456 3.73598 34.472 2.45598 31.848C1.20798 29.192 0.583984 26.008 0.583984 22.296C0.583984 18.68 1.22398 15.56 2.50398 12.936C3.81598 10.312 5.60798 8.32799 7.87998 6.98399C10.184 5.60799 12.792 4.91999 15.704 4.91999Z" fill="#0E0B0B"/>
<path d="M49.3726 31.608C49.3726 32.568 49.5006 33.272 49.7566 33.72C50.0446 34.168 50.4926 34.504 51.1006 34.728L49.5166 39.672C47.9486 39.544 46.6686 39.208 45.6766 38.664C44.6846 38.088 43.9166 37.192 43.3726 35.976C41.7086 38.536 39.1486 39.816 35.6926 39.816C33.1646 39.816 31.1486 39.08 29.6446 37.608C28.1406 36.136 27.3886 34.216 27.3886 31.848C27.3886 29.064 28.4126 26.936 30.4606 25.464C32.5086 23.992 35.4686 23.256 39.3406 23.256H41.9326V22.152C41.9326 20.648 41.6126 19.624 40.9726 19.08C40.3326 18.504 39.2126 18.216 37.6126 18.216C36.7806 18.216 35.7726 18.344 34.5886 18.6C33.4046 18.824 32.1886 19.144 30.9406 19.56L29.2126 14.568C30.8126 13.96 32.4446 13.496 34.1086 13.176C35.8046 12.856 37.3726 12.696 38.8126 12.696C42.4606 12.696 45.1326 13.448 46.8286 14.952C48.5246 16.456 49.3726 18.712 49.3726 21.72V31.608ZM37.9006 34.392C39.6286 34.392 40.9726 33.576 41.9326 31.944V27.432H40.0606C38.3326 27.432 37.0366 27.736 36.1726 28.344C35.3406 28.952 34.9246 29.896 34.9246 31.176C34.9246 32.2 35.1806 33 35.6926 33.576C36.2366 34.12 36.9726 34.392 37.9006 34.392Z" fill="#0E0B0B"/>
<path d="M62.9975 13.512V39H55.4135V13.512H62.9975ZM59.1575 0.071991C60.4695 0.071991 61.5415 0.487991 62.3735 1.31999C63.2375 2.11999 63.6695 3.14399 63.6695 4.39199C63.6695 5.63999 63.2375 6.67999 62.3735 7.51199C61.5415 8.31199 60.4695 8.71199 59.1575 8.71199C57.8455 8.71199 56.7735 8.31199 55.9415 7.51199C55.1095 6.67999 54.6935 5.63999 54.6935 4.39199C54.6935 3.14399 55.1095 2.11999 55.9415 1.31999C56.7735 0.487991 57.8455 0.071991 59.1575 0.071991Z" fill="#0E0B0B"/>
<path d="M76.5444 2.56799V39H68.9604V3.38399L76.5444 2.56799ZM92.2884 13.512L84.5604 24.696L92.9124 39H84.3684L76.7844 25.08L84.5604 13.512H92.2884Z" fill="#0E0B0B"/>
<path d="M109.509 39.048C108.485 42.344 106.805 44.872 104.469 46.632C102.165 48.424 99.0607 49.432 95.1567 49.656L94.3407 44.328C96.7727 44.008 98.5647 43.464 99.7167 42.696C100.901 41.928 101.845 40.696 102.549 39H99.9567L92.1807 13.512H100.245L104.805 34.152L109.797 13.512H117.621L109.509 39.048Z" fill="#0E0B0B"/>
</svg>
