<svg width="18" height="17" viewBox="0 0 18 17" fill="none" xmlns="http://www.w3.org/2000/svg">
<path d="M16.95 16.253C14.8667 16.253 12.8083 15.8429 10.775 15.0227C8.74167 14.2025 6.89167 13.04 5.225 11.5351C3.55833 10.0302 2.27083 8.35975 1.3625 6.52376C0.454167 4.68778 0 2.82922 0 0.94809C0 0.677207 0.1 0.451472 0.3 0.270883C0.5 0.0902943 0.75 0 1.05 0H5.1C5.33333 0 5.54167 0.071483 5.725 0.214449C5.90833 0.357415 6.01667 0.526717 6.05 0.722355L6.7 3.88266C6.73333 4.12344 6.725 4.3266 6.675 4.49214C6.625 4.65768 6.53333 4.80065 6.4 4.92104L3.975 7.13325C4.30833 7.69007 4.70417 8.22807 5.1625 8.74726C5.62083 9.26645 6.125 9.76683 6.675 10.2484C7.19167 10.7149 7.73333 11.1476 8.3 11.5464C8.86667 11.9452 9.46667 12.3101 10.1 12.6412L12.45 10.5193C12.6 10.3838 12.7958 10.2823 13.0375 10.2145C13.2792 10.1468 13.5167 10.128 13.75 10.1581L17.2 10.7902C17.4333 10.8504 17.625 10.9595 17.775 11.1175C17.925 11.2755 18 11.4523 18 11.648V15.3049C18 15.5758 17.9 15.8015 17.7 15.9821C17.5 16.1627 17.25 16.253 16.95 16.253ZM3.025 5.41766L4.675 3.9278L4.25 1.80589H2.025C2.10833 2.4229 2.225 3.03238 2.375 3.63435C2.525 4.23631 2.74167 4.83075 3.025 5.41766ZM11.975 13.499C12.625 13.7548 13.2875 13.958 13.9625 14.1085C14.6375 14.259 15.3167 14.3568 16 14.4019V12.4155L13.65 11.9866L11.975 13.499Z" fill="white"/>
</svg>
